<svg width="15" height="14" viewBox="0 0 15 14" fill="none" xmlns="http://www.w3.org/2000/svg">
<path d="M13.75 11.306V12.056C13.75 12.881 13.075 13.556 12.25 13.556H1.75C0.9175 13.556 0.25 12.881 0.25 12.056V1.55603C0.25 0.73103 0.9175 0.0560303 1.75 0.0560303H12.25C13.075 0.0560303 13.75 0.73103 13.75 1.55603V2.30603H7C6.1675 2.30603 5.5 2.98103 5.5 3.80603V9.80603C5.5 10.631 6.1675 11.306 7 11.306H13.75ZM7 9.80603H14.5V3.80603H7V9.80603ZM10 7.93103C9.3775 7.93103 8.875 7.42853 8.875 6.80603C8.875 6.18353 9.3775 5.68103 10 5.68103C10.6225 5.68103 11.125 6.18353 11.125 6.80603C11.125 7.42853 10.6225 7.93103 10 7.93103Z" fill="#62CA7F"/>
</svg>
