<svg width="18" height="19" viewBox="0 0 18 19" fill="none" xmlns="http://www.w3.org/2000/svg">
<path fill-rule="evenodd" clip-rule="evenodd" d="M5.49774 2.43497H12.502C15.0527 2.43497 16.4927 3.88172 16.5002 6.43247V13.4375C16.5002 15.9875 15.0527 17.435 12.502 17.435H5.49774C2.94699 17.435 1.50024 15.9875 1.50024 13.4375V6.43247C1.50024 3.88172 2.94699 2.43497 5.49774 2.43497ZM9.03704 14.33C9.36029 14.33 9.62954 14.09 9.65954 13.7675V6.12497C9.68954 5.89247 9.57779 5.65922 9.37529 5.53247C9.16454 5.40497 8.90954 5.40497 8.70779 5.53247C8.50454 5.65922 8.39279 5.89247 8.41454 6.12497V13.7675C8.45279 14.09 8.72204 14.33 9.03704 14.33ZM12.4878 14.33C12.8028 14.33 13.072 14.09 13.1103 13.7675V11.3075C13.132 11.0667 13.0203 10.8425 12.817 10.715C12.6153 10.5875 12.3603 10.5875 12.1503 10.715C11.947 10.8425 11.8353 11.0667 11.8653 11.3075V13.7675C11.8953 14.09 12.1645 14.33 12.4878 14.33ZM6.16452 13.7675C6.13452 14.09 5.86527 14.33 5.54202 14.33C5.21952 14.33 4.94952 14.09 4.92027 13.7675V8.58497C4.89777 8.35172 5.00952 8.11997 5.21277 7.99247C5.41452 7.86497 5.67027 7.86497 5.87277 7.99247C6.07452 8.11997 6.18777 8.35172 6.16452 8.58497V13.7675Z" fill="#6D6D6D"/>
</svg>
