<svg width="14" height="18" viewBox="0 0 14 18" fill="none" xmlns="http://www.w3.org/2000/svg">
<path d="M0.880005 18.0025L2.68 17.1025L4.12 17.8225L5.56 17.1025L7 17.8225L8.44 17.1025L9.88 17.8225L11.32 17.1025L13.12 18.0025V0.860001H0.880005V18.0025ZM1.6 1.58H12.4V16.8375L11.32 16.2975L9.88 17.0175L8.44 16.2975L7 17.0175L5.56 16.2975L4.12 17.0175L2.68 16.2975L1.6 16.8375V1.58Z" fill="#62CA7F"/>
<path d="M7.00001 6.26C7.99253 6.26 8.80001 5.45252 8.80001 4.46C8.80001 3.46748 7.99253 2.66 7.00001 2.66C6.00749 2.66 5.20001 3.46748 5.20001 4.46C5.20001 5.45252 6.00749 6.26 7.00001 6.26ZM7.00001 3.38C7.59545 3.38 8.08001 3.86456 8.08001 4.46C8.08001 5.05544 7.59545 5.54 7.00001 5.54C6.40457 5.54 5.92001 5.05544 5.92001 4.46C5.92001 3.86456 6.40457 3.38 7.00001 3.38Z" fill="#62CA7F"/>
<path d="M7.35998 8.42H3.03998V9.14H7.35998V8.42Z" fill="#62CA7F"/>
<path d="M10.96 8.42H9.52002V9.14H10.96V8.42Z" fill="#62CA7F"/>
<path d="M7.35998 10.22H3.03998V10.94H7.35998V10.22Z" fill="#62CA7F"/>
<path d="M10.96 10.22H9.52002V10.94H10.96V10.22Z" fill="#62CA7F"/>
<path d="M7.35998 12.02H3.03998V12.74H7.35998V12.02Z" fill="#62CA7F"/>
<path d="M10.96 12.02H9.52002V12.74H10.96V12.02Z" fill="#62CA7F"/>
<path d="M7.35998 13.82H3.03998V14.54H7.35998V13.82Z" fill="#62CA7F"/>
<path d="M10.96 13.82H9.52002V14.54H10.96V13.82Z" fill="#62CA7F"/>
</svg>
