<svg width="18" height="19" viewBox="0 0 18 19" fill="none" xmlns="http://www.w3.org/2000/svg">
<g clip-path="url(#clip0_3_544)">
<path d="M2.25 7.68768H0.75V15.9377C0.75 16.7702 1.4175 17.4377 2.25 17.4377H12.75C13.5825 17.4377 14.25 16.7702 14.25 15.9377H2.25V7.68768ZM13.5 4.68768V3.18768C13.5 2.35518 12.8325 1.68768 12 1.68768H9C8.1675 1.68768 7.5 2.35518 7.5 3.18768V4.68768H3.75V12.9377C3.75 13.7702 4.4175 14.4377 5.25 14.4377H15.75C16.5825 14.4377 17.25 13.7702 17.25 12.9377V4.68768H13.5ZM9 3.18768H12V4.68768H9V3.18768ZM9 12.1877V6.93768L13.125 9.18768L9 12.1877Z" fill="#62CA7F"/>
</g>
<defs>
<clipPath id="clip0_3_544">
<rect width="18" height="18" fill="white" transform="translate(0 0.937683)"/>
</clipPath>
</defs>
</svg>
