<svg width="16" height="19" viewBox="0 0 16 19" fill="none" xmlns="http://www.w3.org/2000/svg">
<path d="M15.425 5.50603L11.1465 1.36462C10.8863 1.1115 10.5312 0.967358 10.1656 0.967358L2.10781 0.946264C1.13047 0.946264 0.335938 1.73376 0.335938 2.70408V17.1814C0.335938 18.1342 1.15508 18.9427 2.12539 18.9427H14.0434C14.9961 18.9427 15.7695 18.1517 15.7695 17.1779V6.34626C15.7695 6.01931 15.6465 5.72048 15.425 5.50603ZM11.1289 3.30525L13.3402 5.44275H11.5121C11.3082 5.44275 11.1289 5.28455 11.1289 5.10525V3.30525ZM14.0434 17.5365H2.12539C1.92852 17.5365 1.74219 17.3642 1.74219 17.1779V2.70408C1.74219 2.51775 1.91445 2.35251 2.10781 2.35251L9.72266 2.37361V5.10525C9.72266 6.06501 10.5242 6.849 11.5121 6.849H14.3633V17.1779C14.3633 17.3537 14.2437 17.5365 14.0434 17.5365Z" fill="#62CA7F"/>
<path d="M3.39453 10.3295C3.39453 10.7162 3.71094 11.0326 4.09766 11.0326H10.25C10.6367 11.0326 10.9531 10.7162 10.9531 10.3295C10.9531 9.94275 10.6367 9.62634 10.25 9.62634H4.09766C3.71094 9.62634 3.39453 9.94275 3.39453 10.3295Z" fill="#62CA7F"/>
<path d="M4.0625 8.22009H8.14062C8.52734 8.22009 8.84375 7.90369 8.84375 7.51697C8.84375 7.13025 8.52734 6.81384 8.14062 6.81384H4.0625C3.67578 6.81384 3.35938 7.13025 3.35938 7.51697C3.35938 7.90369 3.67578 8.22009 4.0625 8.22009Z" fill="#62CA7F"/>
<path d="M12.0078 12.4388H4.09766C3.71094 12.4388 3.39453 12.7552 3.39453 13.142C3.39453 13.5287 3.71094 13.8451 4.09766 13.8451H12.0078C12.3945 13.8451 12.7109 13.5287 12.7109 13.142C12.7109 12.7552 12.3945 12.4388 12.0078 12.4388Z" fill="#62CA7F"/>
</svg>
