<svg width="18" height="19" viewBox="0 0 18 19" fill="none" xmlns="http://www.w3.org/2000/svg">
<path d="M9 11.3294C10.2426 11.3294 11.25 10.322 11.25 9.07941C11.25 7.83677 10.2426 6.82941 9 6.82941C7.75736 6.82941 6.75 7.83677 6.75 9.07941C6.75 10.322 7.75736 11.3294 9 11.3294Z" stroke="#6D6D6D" stroke-miterlimit="10" stroke-linecap="round" stroke-linejoin="round"/>
<path d="M15.6139 5.91028L15.0514 4.93603C14.7409 4.39772 14.0529 4.21378 13.5146 4.52428L13.2188 4.69528C12.0938 5.34441 10.6875 4.53272 10.6875 3.23391V2.89191C10.6875 2.27034 10.1841 1.76691 9.5625 1.76691H8.4375C7.81594 1.76691 7.3125 2.27034 7.3125 2.89191V3.23391C7.3125 4.53272 5.90625 5.34497 4.78125 4.69528L4.48538 4.52428C3.94706 4.21378 3.25913 4.39772 2.94863 4.93603L2.38613 5.91028C2.07563 6.44859 2.25956 7.13653 2.79788 7.44703L3.09375 7.61803C4.21875 8.26772 4.21875 9.89109 3.09375 10.5408L2.79788 10.7118C2.25956 11.0223 2.07563 11.7102 2.38613 12.2485L2.94863 13.2228C3.25913 13.7611 3.94706 13.945 4.48538 13.6345L4.78125 13.4635C5.90625 12.8138 7.3125 13.6261 7.3125 14.9249V15.2669C7.3125 15.8885 7.81594 16.3919 8.4375 16.3919H9.5625C10.1841 16.3919 10.6875 15.8885 10.6875 15.2669V14.9249C10.6875 13.6261 12.0938 12.8138 13.2188 13.4635L13.5146 13.6345C14.0529 13.945 14.7409 13.7611 15.0514 13.2228L15.6139 12.2485C15.9244 11.7102 15.7404 11.0223 15.2021 10.7118L14.9063 10.5408C13.7813 9.89109 13.7813 8.26772 14.9063 7.61803L15.2021 7.44703C15.7404 7.13653 15.9249 6.44859 15.6139 5.91028Z" stroke="#6D6D6D" stroke-miterlimit="10" stroke-linecap="round" stroke-linejoin="round"/>
</svg>
