<svg width="13" height="13" viewBox="0 0 13 13" fill="none" xmlns="http://www.w3.org/2000/svg">
<path d="M7.5 0.0276489H4.5V3.02765H7.5V0.0276489Z" fill="#62CA7F"/>
<path d="M3 9.02765H0V12.0276H3V9.02765Z" fill="#62CA7F"/>
<path d="M3 4.52765H0V7.52765H3V4.52765Z" fill="#62CA7F"/>
<path d="M3 0.0276489H0V3.02765H3V0.0276489Z" fill="#62CA7F"/>
<path d="M7.5 6.34265V4.52765H4.5V7.52765H6.315L7.5 6.34265Z" fill="#62CA7F"/>
<path d="M12.66 5.49515L11.7825 4.61765C11.6625 4.49765 11.4675 4.49765 11.3475 4.61765L10.6875 5.27765L12 6.59015L12.66 5.93015C12.78 5.81015 12.78 5.61515 12.66 5.49515Z" fill="#62CA7F"/>
<path d="M5.25 10.7151V12.0276H6.5625L11.565 7.02515L10.2525 5.71265L5.25 10.7151Z" fill="#62CA7F"/>
<path d="M12 0.0276489H9V3.02765H12V0.0276489Z" fill="#62CA7F"/>
</svg>
